<?xml version="1.0" standalone="no"?>
<svg xmlns:xlink="http://www.w3.org/1999/xlink" id="wave" style="transform:rotate(180deg); transition: 0.3s" viewBox="0 0 1440 490" version="1.1" xmlns="http://www.w3.org/2000/svg"><defs><linearGradient id="sw-gradient-0" x1="0" x2="0" y1="1" y2="0"><stop stop-color="rgba(243, 106, 62, 1)" offset="0%"/><stop stop-color="rgba(255, 179, 11, 1)" offset="100%"/></linearGradient></defs><path style="transform:translate(0, 0px); opacity:1" fill="url(#sw-gradient-0)" d="M0,98L34.3,106.2C68.6,114,137,131,206,138.8C274.3,147,343,147,411,122.5C480,98,549,49,617,32.7C685.7,16,754,33,823,49C891.4,65,960,82,1029,73.5C1097.1,65,1166,33,1234,16.3C1302.9,0,1371,0,1440,57.2C1508.6,114,1577,229,1646,294C1714.3,359,1783,376,1851,383.8C1920,392,1989,392,2057,334.8C2125.7,278,2194,163,2263,106.2C2331.4,49,2400,49,2469,106.2C2537.1,163,2606,278,2674,269.5C2742.9,261,2811,131,2880,73.5C2948.6,16,3017,33,3086,81.7C3154.3,131,3223,212,3291,220.5C3360,229,3429,163,3497,171.5C3565.7,180,3634,261,3703,294C3771.4,327,3840,310,3909,261.3C3977.1,212,4046,131,4114,130.7C4182.9,131,4251,212,4320,220.5C4388.6,229,4457,163,4526,171.5C4594.3,180,4663,261,4731,253.2C4800,245,4869,147,4903,98L4937.1,49L4937.1,490L4902.9,490C4868.6,490,4800,490,4731,490C4662.9,490,4594,490,4526,490C4457.1,490,4389,490,4320,490C4251.4,490,4183,490,4114,490C4045.7,490,3977,490,3909,490C3840,490,3771,490,3703,490C3634.3,490,3566,490,3497,490C3428.6,490,3360,490,3291,490C3222.9,490,3154,490,3086,490C3017.1,490,2949,490,2880,490C2811.4,490,2743,490,2674,490C2605.7,490,2537,490,2469,490C2400,490,2331,490,2263,490C2194.3,490,2126,490,2057,490C1988.6,490,1920,490,1851,490C1782.9,490,1714,490,1646,490C1577.1,490,1509,490,1440,490C1371.4,490,1303,490,1234,490C1165.7,490,1097,490,1029,490C960,490,891,490,823,490C754.3,490,686,490,617,490C548.6,490,480,490,411,490C342.9,490,274,490,206,490C137.1,490,69,490,34,490L0,490Z"/><defs><linearGradient id="sw-gradient-1" x1="0" x2="0" y1="1" y2="0"><stop stop-color="rgba(243, 106, 62, 1)" offset="0%"/><stop stop-color="rgba(255, 179, 11, 1)" offset="100%"/></linearGradient></defs><path style="transform:translate(0, 50px); opacity:0.9" fill="url(#sw-gradient-1)" d="M0,441L34.3,441C68.6,441,137,441,206,383.8C274.3,327,343,212,411,138.8C480,65,549,33,617,24.5C685.7,16,754,33,823,40.8C891.4,49,960,49,1029,40.8C1097.1,33,1166,16,1234,24.5C1302.9,33,1371,65,1440,98C1508.6,131,1577,163,1646,147C1714.3,131,1783,65,1851,57.2C1920,49,1989,98,2057,122.5C2125.7,147,2194,147,2263,163.3C2331.4,180,2400,212,2469,261.3C2537.1,310,2606,376,2674,359.3C2742.9,343,2811,245,2880,220.5C2948.6,196,3017,245,3086,253.2C3154.3,261,3223,229,3291,187.8C3360,147,3429,98,3497,65.3C3565.7,33,3634,16,3703,24.5C3771.4,33,3840,65,3909,122.5C3977.1,180,4046,261,4114,310.3C4182.9,359,4251,376,4320,343C4388.6,310,4457,229,4526,236.8C4594.3,245,4663,343,4731,326.7C4800,310,4869,180,4903,114.3L4937.1,49L4937.1,490L4902.9,490C4868.6,490,4800,490,4731,490C4662.9,490,4594,490,4526,490C4457.1,490,4389,490,4320,490C4251.4,490,4183,490,4114,490C4045.7,490,3977,490,3909,490C3840,490,3771,490,3703,490C3634.3,490,3566,490,3497,490C3428.6,490,3360,490,3291,490C3222.9,490,3154,490,3086,490C3017.1,490,2949,490,2880,490C2811.4,490,2743,490,2674,490C2605.7,490,2537,490,2469,490C2400,490,2331,490,2263,490C2194.3,490,2126,490,2057,490C1988.6,490,1920,490,1851,490C1782.9,490,1714,490,1646,490C1577.1,490,1509,490,1440,490C1371.4,490,1303,490,1234,490C1165.7,490,1097,490,1029,490C960,490,891,490,823,490C754.3,490,686,490,617,490C548.6,490,480,490,411,490C342.9,490,274,490,206,490C137.1,490,69,490,34,490L0,490Z"/><defs><linearGradient id="sw-gradient-2" x1="0" x2="0" y1="1" y2="0"><stop stop-color="rgba(243, 106, 62, 1)" offset="0%"/><stop stop-color="rgba(255, 179, 11, 1)" offset="100%"/></linearGradient></defs><path style="transform:translate(0, 100px); opacity:0.8" fill="url(#sw-gradient-2)" d="M0,245L34.3,212.3C68.6,180,137,114,206,114.3C274.3,114,343,180,411,171.5C480,163,549,82,617,106.2C685.7,131,754,261,823,269.5C891.4,278,960,163,1029,122.5C1097.1,82,1166,114,1234,163.3C1302.9,212,1371,278,1440,310.3C1508.6,343,1577,343,1646,334.8C1714.3,327,1783,310,1851,294C1920,278,1989,261,2057,245C2125.7,229,2194,212,2263,179.7C2331.4,147,2400,98,2469,81.7C2537.1,65,2606,82,2674,89.8C2742.9,98,2811,98,2880,98C2948.6,98,3017,98,3086,106.2C3154.3,114,3223,131,3291,122.5C3360,114,3429,82,3497,57.2C3565.7,33,3634,16,3703,32.7C3771.4,49,3840,98,3909,130.7C3977.1,163,4046,180,4114,155.2C4182.9,131,4251,65,4320,73.5C4388.6,82,4457,163,4526,220.5C4594.3,278,4663,310,4731,343C4800,376,4869,408,4903,424.7L4937.1,441L4937.1,490L4902.9,490C4868.6,490,4800,490,4731,490C4662.9,490,4594,490,4526,490C4457.1,490,4389,490,4320,490C4251.4,490,4183,490,4114,490C4045.7,490,3977,490,3909,490C3840,490,3771,490,3703,490C3634.3,490,3566,490,3497,490C3428.6,490,3360,490,3291,490C3222.9,490,3154,490,3086,490C3017.1,490,2949,490,2880,490C2811.4,490,2743,490,2674,490C2605.7,490,2537,490,2469,490C2400,490,2331,490,2263,490C2194.3,490,2126,490,2057,490C1988.6,490,1920,490,1851,490C1782.9,490,1714,490,1646,490C1577.1,490,1509,490,1440,490C1371.4,490,1303,490,1234,490C1165.7,490,1097,490,1029,490C960,490,891,490,823,490C754.3,490,686,490,617,490C548.6,490,480,490,411,490C342.9,490,274,490,206,490C137.1,490,69,490,34,490L0,490Z"/><defs><linearGradient id="sw-gradient-3" x1="0" x2="0" y1="1" y2="0"><stop stop-color="rgba(243, 106, 62, 1)" offset="0%"/><stop stop-color="rgba(255, 179, 11, 1)" offset="100%"/></linearGradient></defs><path style="transform:translate(0, 150px); opacity:0.7" fill="url(#sw-gradient-3)" d="M0,147L34.3,155.2C68.6,163,137,180,206,228.7C274.3,278,343,359,411,375.7C480,392,549,343,617,269.5C685.7,196,754,98,823,73.5C891.4,49,960,98,1029,122.5C1097.1,147,1166,147,1234,163.3C1302.9,180,1371,212,1440,196C1508.6,180,1577,114,1646,98C1714.3,82,1783,114,1851,163.3C1920,212,1989,278,2057,318.5C2125.7,359,2194,376,2263,326.7C2331.4,278,2400,163,2469,138.8C2537.1,114,2606,180,2674,228.7C2742.9,278,2811,310,2880,285.8C2948.6,261,3017,180,3086,163.3C3154.3,147,3223,196,3291,196C3360,196,3429,147,3497,179.7C3565.7,212,3634,327,3703,310.3C3771.4,294,3840,147,3909,89.8C3977.1,33,4046,65,4114,73.5C4182.9,82,4251,65,4320,114.3C4388.6,163,4457,278,4526,269.5C4594.3,261,4663,131,4731,114.3C4800,98,4869,196,4903,245L4937.1,294L4937.1,490L4902.9,490C4868.6,490,4800,490,4731,490C4662.9,490,4594,490,4526,490C4457.1,490,4389,490,4320,490C4251.4,490,4183,490,4114,490C4045.7,490,3977,490,3909,490C3840,490,3771,490,3703,490C3634.3,490,3566,490,3497,490C3428.6,490,3360,490,3291,490C3222.9,490,3154,490,3086,490C3017.1,490,2949,490,2880,490C2811.4,490,2743,490,2674,490C2605.7,490,2537,490,2469,490C2400,490,2331,490,2263,490C2194.3,490,2126,490,2057,490C1988.6,490,1920,490,1851,490C1782.9,490,1714,490,1646,490C1577.1,490,1509,490,1440,490C1371.4,490,1303,490,1234,490C1165.7,490,1097,490,1029,490C960,490,891,490,823,490C754.3,490,686,490,617,490C548.6,490,480,490,411,490C342.9,490,274,490,206,490C137.1,490,69,490,34,490L0,490Z"/></svg>